# xmcd
#
# Track frame offsets: 
#        150
#        10985
#        23967
#        36437
#        51487
#        69492
#        98897
#        111642
#        130637
#        143347
#        154917
#        170640
#        193370
#        215907
#        235147
#        248432
#        262955
#        279567
#        298990
#        310977
#
# Disc length: 4311 seconds
#
# Revision: 1
# Processed by: cddbd v1.5.2PL0 Copyright (c) Steve Scherf et al.
# Submitted via: ExactAudioCopyFreeDBPlugin 1.0
#
DISCID=3710d514
DTITLE=Cream - The Very Best Of Cream
DYEAR=1995
DGENRE=Blues Rock - Psychedelic Rock
TTITLE0=Wrapping Paper
TTITLE1=I Feel Free
TTITLE2=N.S.U.
TTITLE3=Sweet Wine
TTITLE4=I'm So Glad
TTITLE5=Spoonful
TTITLE6=Strange Brew
TTITLE7=Sunshine Of Your Love
TTITLE8=Tales Of Brave Ulysses
TTITLE9=SWLABR
TTITLE10=We're Going Wrong
TTITLE11=White Room
TTITLE12=Sitting On Top Of The World
TTITLE13=Politician
TTITLE14=Those Were The Days
TTITLE15=Born Under A Bad Sign
TTITLE16=Deserted Cities Of The Heart
TTITLE17=Crossroads
TTITLE18=Anyone For Tennis
TTITLE19=Badge
EXTD=
EXTT0=
EXTT1=
EXTT2=
EXTT3=
EXTT4=
EXTT5=
EXTT6=
EXTT7=
EXTT8=
EXTT9=
EXTT10=
EXTT11=
EXTT12=
EXTT13=
EXTT14=
EXTT15=
EXTT16=
EXTT17=
EXTT18=
EXTT19=
PLAYORDER=
